<?xml version="1.0" standalone="no"?><!DOCTYPE svg PUBLIC "-//W3C//DTD SVG 1.1//EN" "http://www.w3.org/Graphics/SVG/1.1/DTD/svg11.dtd"><svg t="1589166144782" class="icon" viewBox="0 0 1024 1024" version="1.1" xmlns="http://www.w3.org/2000/svg" p-id="1245" xmlns:xlink="http://www.w3.org/1999/xlink" width="200" height="200"><defs><style type="text/css"></style></defs><path d="M687.2 682.2l-33.7 33.7c-4.7 4.7-12.3 4.7-17 0l-73.4-73.4c-4.7-4.7-4.7-12.3 0-17l33.7-33.7c4.7-4.7 12.3-4.7 17 0l73.4 73.4c4.7 4.7 4.7 12.3 0 17z" fill="#4C6070" p-id="1246"></path><path d="M670.035 737.657l38.962-38.961 146.299 146.299-38.962 38.961z" fill="#FFBD5C" p-id="1247"></path><path d="M886.3 819.5L734.4 667.7c-7-7-16.3-10.5-25.5-10.5s-18.5 3.5-25.5 10.5l-44.5 44.5c-14 14-14 37 0 51L790.8 915c7 7 16.3 10.5 25.5 10.5s18.5-3.5 25.5-10.5l44.5-44.5c14-14 14-37 0-51zM711.7 696z m104.6 187.9L670 737.6l38.9-38.9L855.2 845l-38.9 38.9z" fill="#4C6070" p-id="1248"></path><path d="M683.758 751.468l38.82-38.82 28.283 28.284-38.82 38.82z" fill="#4C6070" p-id="1249"></path><path d="M554 570.1l-84.1-132.5-117.4 125.3c-7.4 7.9-18.1 11.9-28.9 10.9-10.7-1-20.5-7.1-26.3-16.2l-50-79.3c-5-7.9-6.6-17.3-4.5-26.4s7.6-16.9 15.5-21.9 17.3-6.6 26.4-4.5 16.9 7.6 21.9 15.5l25.8 40.9 117.3-125.2c7.4-7.8 18.1-11.9 28.8-10.9s20.5 7 26.3 16.1L586.7 491l38.3-48.1c1.3-56.9-19.7-114.3-63.2-157.7-84.3-84.3-221.1-84.3-305.4 0s-84.3 221.1 0 305.4 221.1 84.3 305.4 0c2.4-2.4 4.8-4.9 7.1-7.5-6-2.7-11.2-7.2-14.9-13z" fill="#FFBD5C" p-id="1250"></path><path d="M257.3 387.6c-3.3 0-6.6-0.8-9.6-2.5-9.7-5.3-13.2-17.5-7.9-27.2 9.3-17 21.1-32.7 35-46.5 9.9-9.9 20.7-18.7 32.3-26.4 16.7-11 34.9-19.5 54.1-25.3 15.5-4.6 31.6-7.4 47.7-8.3 11-0.6 20.5 7.8 21.1 18.9 0.6 11-7.8 20.5-18.9 21.1-13 0.7-26 3-38.5 6.7-15.4 4.6-30.1 11.5-43.5 20.3-9.3 6.1-18.1 13.3-26 21.3-11.2 11.2-20.7 23.8-28.2 37.5-3.7 6.7-10.6 10.4-17.6 10.4z" fill="#FFFFFF" p-id="1251"></path><path d="M610.9 573.1c-2.2 2.7-4.7 5-7.4 7-7.2 9.9-15.3 19.2-24.1 28.1-45.5 45.5-105.9 70.5-170.2 70.5s-124.8-25-170.2-70.5c-45.5-45.5-70.5-105.9-70.5-170.2s25-124.8 70.5-170.2c45.5-45.5 105.9-70.5 170.2-70.5s124.8 25 170.2 70.5c39.6 39.6 63.7 90.6 69.3 145.6l33.3-41.9c-12-49.6-37.4-95-74.3-132-53-53-123.5-82.2-198.5-82.2s-145.5 29.2-198.5 82.2S128.5 363 128.5 438s29.2 145.5 82.2 198.5 123.5 82.2 198.5 82.2 145.5-29.2 198.5-82.2c43.6-43.6 71.1-99.1 79.5-159.1l-76.3 95.7z" fill="#4C6070" p-id="1252"></path><path d="M842.6 250.5c0-0.4 0-0.8-0.1-1.2 0-0.2 0-0.4-0.1-0.6l-0.3-1.8v-0.1c-0.1-0.6-0.3-1.1-0.4-1.7-0.1-0.2-0.1-0.4-0.2-0.6-0.1-0.4-0.3-0.8-0.4-1.1-0.1-0.2-0.2-0.4-0.3-0.7-0.2-0.4-0.3-0.7-0.5-1l-0.3-0.6c-0.3-0.5-0.5-0.9-0.8-1.4-0.1-0.2-0.3-0.4-0.4-0.6-0.2-0.3-0.4-0.5-0.6-0.8-0.2-0.2-0.3-0.4-0.5-0.6-0.2-0.3-0.5-0.5-0.8-0.8-0.1-0.2-0.3-0.3-0.4-0.4-0.4-0.4-0.8-0.7-1.2-1l-0.1-0.1c-0.5-0.4-1-0.7-1.5-1.1-0.1-0.1-0.2-0.1-0.4-0.2-0.4-0.2-0.8-0.5-1.2-0.7l-0.6-0.3c-0.3-0.2-0.7-0.3-1-0.5-0.2-0.1-0.4-0.2-0.7-0.3-0.1 0-0.2-0.1-0.3-0.1-0.2-0.1-0.5-0.1-0.7-0.2-0.2-0.1-0.5-0.2-0.7-0.2-0.4-0.1-0.9-0.2-1.3-0.3-0.3-0.1-0.6-0.1-0.8-0.2-0.4-0.1-0.8-0.1-1.3-0.2-0.2 0-0.5 0-0.7-0.1h-1.8c-0.4 0-0.9 0-1.3 0.1h-0.5l-1.8 0.3h-0.1l-85.6 18c-10.8 2.3-17.7 12.9-15.5 23.7 2 9.4 10.3 15.9 19.6 15.9 1.4 0 2.7-0.1 4.1-0.4l31.2-6.6-187 234.9L492.2 370c-3.3-5.2-8.9-8.6-15-9.2-6.2-0.6-12.2 1.7-16.5 6.2L330.1 506.4 294 449c-5.9-9.3-18.2-12.1-27.6-6.3-9.3 5.9-12.1 18.2-6.3 27.6l50 79.3c3.3 5.2 8.9 8.7 15 9.2 6.2 0.6 12.3-1.7 16.5-6.2l130.6-139.5 94.4 148.8c3.5 5.5 9.4 8.9 15.8 9.3h1.1c6.1 0 11.8-2.8 15.6-7.5l201.3-253-0.9 27.5c-0.4 11 8.3 20.3 19.3 20.7 11 0.4 20.3-8.3 20.7-19.3l3-88v-0.4c0.1-0.2 0.1-0.4 0.1-0.7z" fill="#4C6070" p-id="1253"></path></svg>